<svg width="465" height="464" viewBox="0 0 465 464" fill="none" xmlns="http://www.w3.org/2000/svg">
<path d="M175.115 362.269C224.237 373.116 258.067 357.75 268.843 348.712C187.837 290.401 172.425 274.191 162.484 265.556C151.234 255.783 123.424 227.429 111.415 211.893C95.6288 191.473 100.238 172.883 105.71 164.613C111.415 155.991 142.734 117.561 162.484 101.416C205.506 66.2475 230.271 49.9871 278 22.3391C257.321 11.4652 233.427 1.57329 209.738 0.334491C186.048 -0.904305 155.037 1.34839 137.164 6.25318C97.611 17.1077 56.0335 47.5464 47.7937 53.9468C41.2019 59.0672 27.5639 69.9365 21.5689 74.7311C30.9708 69.6153 49.9804 59.2737 50.8044 58.8332C51.8344 58.2826 76.5538 46.6517 78.693 45.6882C80.8322 44.7247 88.042 43.2106 91.7658 45.6882C95.4896 48.1658 96.3611 51.6757 94.0634 57.3879C91.7658 63.1001 42.8815 95.5153 11.6653 145.274C-19.5509 195.032 20.6826 253.61 30.4426 265.506C43.6408 281.592 113.712 348.712 175.115 362.269Z" fill="#6366F1"/>
<path d="M282.956 101.731C231.891 90.8842 196.721 106.25 185.52 115.288C269.73 173.599 285.753 189.809 296.087 198.444C307.782 208.217 336.692 236.571 349.177 252.107C365.587 272.527 360.796 291.117 355.107 299.387C349.177 308.009 316.619 346.439 296.087 362.584C251.363 397.752 225.617 414.013 176 441.661C197.497 452.535 222.336 462.427 246.963 463.666C271.59 464.904 303.829 462.652 322.409 457.747C363.527 446.892 406.749 416.454 415.315 410.053C422.168 404.933 436.345 394.064 442.578 389.269C432.804 394.385 413.042 404.726 412.185 405.167C411.115 405.717 385.417 417.348 383.193 418.312C380.969 419.275 373.474 420.789 369.603 418.312C365.732 415.834 364.826 412.324 367.215 406.612C369.603 400.9 420.422 368.485 452.873 318.726C485.324 268.968 443.499 210.39 433.353 198.494C419.632 182.408 346.788 115.288 282.956 101.731Z" fill="#6366F1"/>
</svg>
