<svg version="1.2" xmlns="http://www.w3.org/2000/svg" viewBox="0 0 1600 450" width="1600" height="450">
	<title>logo</title>
	<style>
		.s0 { fill: #ffffff } 
	</style>
	<path id="sync.io" class="s0" aria-label="sync.io"  d="m117.1 364.4q-48.6 0-77.4-21.6-28.8-22-30.6-59.4h78.3q0.5 9.9 8.6 15.3 8.1 4.9 22 4.9 12.6 0 19.8-4.5 7.7-4.5 7.7-12.1 0-8.6-9-12.6-8.6-4-33.3-7.2-91.4-10.8-91.4-73.8 0-23.4 12.6-41 13.1-18 36.5-27.4 23.4-9.9 54.4-9.9 28.8 0 51.8 9.9 22.9 9.9 36.4 27.9 13.5 17.5 14.9 40h-75.2q-1.8-17.5-28.8-17.5-11.7 0-18.4 4-6.3 3.6-6.3 10.8 0 8.6 9.4 13.1 9.9 4.5 34.2 7.2 90.9 9.9 90.9 75.1 0 23.4-13.5 41.4-13 17.6-37.3 27.5-24.3 9.9-56.3 9.9zm162.9 69.8v-7.3l37.4-86.8-85.5-211.5v-8.1h82.8l27 72.9 17.5 55.3 17.6-55.3 27.4-72.9h82.8v8.1l-123.3 305.6zm239.9-75.2v-238.5h73.3l2.7 27q13.1-15.3 32-23.4 18.9-8.1 40.9-8.1 45 0 67.5 27.4 23 27.5 23 75.6v140h-80.1v-131q0-19.8-9.5-30.1-9.4-10.8-27-10.8-19.8 0-31.5 11.2-11.7 11.3-11.7 31.1v129.6zm405.5 5.4q-36.9 0-66.2-15.8-29.2-16.2-45.9-44.5-16.2-28.3-16.2-64.4 0-36 16.2-64.3 16.7-28.4 45.9-44.1 29.3-16.2 66.2-16.2 33.3 0 59.8 13 27 13.1 44.1 36.9 17.1 23.4 21.2 54h-76.5q-5.9-14.4-18.5-22.9-12.6-8.6-28.8-8.6-22.5 0-36.4 14.4-14 14.4-14 37.8 0 23.4 14 37.8 13.9 14.4 36.4 14.4 16.7 0 28.8-8.5 12.2-8.5 18.5-23.4h76.9q-4 31-21.1 54.9-17.1 23.4-44.1 36.5-27 13-60.3 13zm191.2-1.4q-19.3 0-31.5-11.2-12.1-11.7-12.1-30.1 0-18.9 11.7-30.2 12.1-11.7 31.9-11.7 19.4 0 31.1 11.7 12.1 11.3 12.1 30.2 0 18.4-12.1 30.1-11.7 11.2-31.1 11.2zm90.5-4v-238.5h79.6v238.5zm-5.8-300.6q0-18.5 12.6-30.6 13-12.2 32.8-12.2 19.4 0 32 12.2 13 12.1 13 30.6 0 18.4-12.6 30.6-12.6 11.7-32.4 11.7-19.8 0-32.8-11.7-12.6-12.2-12.6-30.6zm257.8 306q-37.3 0-67.5-15.7-29.7-16.3-46.8-44.6-16.6-28.8-16.6-64.3 0-36 16.6-64.4 17.1-28.3 46.8-44.1 29.7-16.2 67.5-16.2 37.8 0 67.5 16.2 29.7 15.8 46.4 44.1 17.1 28.4 17.1 64.4 0 35.5-17.1 64.3-16.7 28.3-46.8 44.6-29.7 15.7-67.1 15.7zm-51.3-124.6q0 22.9 14.4 37.8 14.9 14.3 36.9 14.3 22.5 0 36.9-14.4 14.4-14.8 14.4-37.7 0-23-14.4-37.4-14.4-14.8-36.9-14.8-22 0-36.9 14.8-14.4 14.4-14.4 37.4z"/>
</svg>